<?xml version="1.0" encoding="UTF-8" standalone="no"?>
<!-- Created with Inkscape (http://www.inkscape.org/) -->

<svg
   version="1.1"
   id="svg39526"
   width="800"
   height="800"
   viewBox="0 0 800 800"
   sodipodi:docname="ice-cream-fridge-pd.svg"
   inkscape:version="1.2 (dc2aedaf03, 2022-05-15)"
   xmlns:inkscape="http://www.inkscape.org/namespaces/inkscape"
   xmlns:sodipodi="http://sodipodi.sourceforge.net/DTD/sodipodi-0.dtd"
   xmlns="http://www.w3.org/2000/svg"
   xmlns:svg="http://www.w3.org/2000/svg">
  <defs
     id="defs39530">
    <clipPath
       clipPathUnits="userSpaceOnUse"
       id="clipPath39542">
      <path
         d="M 0,600 H 600 V 0 H 0 Z"
         id="path39540" />
    </clipPath>
  </defs>
  <sodipodi:namedview
     id="namedview39528"
     pagecolor="#ffffff"
     bordercolor="#000000"
     borderopacity="0.25"
     inkscape:showpageshadow="2"
     inkscape:pageopacity="0.0"
     inkscape:pagecheckerboard="0"
     inkscape:deskcolor="#d1d1d1"
     showgrid="false"
     inkscape:zoom="1.04625"
     inkscape:cx="400"
     inkscape:cy="400.4779"
     inkscape:window-width="1920"
     inkscape:window-height="1017"
     inkscape:window-x="-8"
     inkscape:window-y="-8"
     inkscape:window-maximized="1"
     inkscape:current-layer="g39534">
    <inkscape:page
       x="0"
       y="0"
       id="page39532"
       width="800"
       height="800" />
  </sodipodi:namedview>
  <g
     id="g39534"
     inkscape:groupmode="layer"
     inkscape:label="Page 1"
     transform="matrix(1.3333333,0,0,-1.3333333,0,800)">
    <g
       id="g39536">
      <g
         id="g39538"
         clip-path="url(#clipPath39542)">
        <g
           id="g39544"
           transform="translate(303.1357,101.0127)">
          <path
             d="M 0,0 C 138.214,0 250.94,20.496 250.94,45.626 250.94,70.755 138.214,91.252 0,91.252 -138.212,91.252 -250.939,70.755 -250.939,45.626 -250.939,20.496 -138.212,0 0,0"
             style="fill:#e8e8e7;fill-opacity:1;fill-rule:evenodd;stroke:none"
             id="path39546" />
        </g>
        <path
           d="M 99.959,134.877 H 506.314 V 227.97 H 99.959 Z"
           style="fill:#b82a22;fill-opacity:1;fill-rule:evenodd;stroke:none"
           id="path39548" />
        <g
           id="g39550"
           transform="translate(154.2793,376.6494)">
          <path
             d="m 0,0 h 297.715 l 75.437,-75.439 v -93.512 H -75.439 v 93.512 z"
             style="fill:#cc2d23;fill-opacity:1;fill-rule:evenodd;stroke:none"
             id="path39552" />
        </g>
        <path
           d="M 116.709,147.255 H 489.564 V 195.32 H 116.709 Z"
           style="fill:#d4c7c2;fill-opacity:1;fill-rule:evenodd;stroke:none"
           id="path39554" />
        <path
           d="m 99.959,201.13 h 406.355 v 6.57 H 99.959 Z"
           style="fill:#a02520;fill-opacity:1;fill-rule:evenodd;stroke:none"
           id="path39556" />
        <g
           id="g39558"
           transform="translate(135.7222,193.4307)">
          <path
             d="m 0,0 h 4.025 0.672 v -0.673 -42.94 -0.672 H 4.025 0 -0.672 v 0.672 42.94 V 0 Z m 7.044,0 h 4.027 0.671 v -0.673 -42.94 -0.672 H 11.071 7.044 6.374 v 0.672 42.94 V 0 Z m 7.046,0 h 4.026 0.671 v -0.673 -42.94 -0.672 H 18.116 14.09 13.419 v 0.672 42.94 V 0 Z m 7.045,0 h 4.026 0.671 v -0.673 -42.94 -0.672 h -0.671 -4.026 -0.671 v 0.672 42.94 V 0 Z m 7.045,0 h 4.025 0.672 v -0.673 -42.94 -0.672 H 32.205 28.18 27.509 v 0.672 42.94 V 0 Z m 7.046,0 h 4.025 0.671 v -0.673 -42.94 -0.672 h -0.671 -4.025 -0.672 v 0.672 42.94 V 0 Z m 7.044,0 h 4.026 0.671 v -0.673 -42.94 -0.672 H 46.296 42.27 41.599 v 0.672 42.94 V 0 Z m 7.045,0 h 4.026 0.671 v -0.673 -42.94 -0.672 h -0.671 -4.026 -0.671 v 0.672 42.94 V 0 Z m 7.046,0 h 4.025 0.671 v -0.673 -42.94 -0.672 H 60.386 56.361 55.69 v 0.672 42.94 V 0 Z m 7.045,0 h 4.025 0.671 v -0.673 -42.94 -0.672 h -0.671 -4.025 -0.671 v 0.672 42.94 V 0 Z m 7.045,0 h 4.025 0.671 v -0.673 -42.94 -0.672 H 74.476 70.451 69.78 v 0.672 42.94 V 0 Z m 7.045,0 h 4.026 0.67 v -0.673 -42.94 -0.672 h -0.67 -4.026 -0.671 v 0.672 42.94 V 0 Z m 7.044,0 h 4.027 0.671 v -0.673 -42.94 -0.672 H 88.567 84.54 83.87 v 0.672 42.94 V 0 Z m 7.045,0 h 4.028 0.67 v -0.673 -42.94 -0.672 h -0.67 -4.028 -0.67 v 0.672 42.94 V 0 Z m 7.046,0 h 4.026 0.672 v -0.673 -42.94 -0.672 h -0.672 -4.026 -0.671 v 0.672 42.94 V 0 Z m 7.045,0 h 4.027 0.67 v -0.673 -42.94 -0.672 h -0.67 -4.027 -0.671 v 0.672 42.94 V 0 Z m 7.045,0 h 4.026 0.671 v -0.673 -42.94 -0.672 h -0.671 -4.026 -0.671 v 0.672 42.94 V 0 Z m 7.046,0 h 4.025 0.672 v -0.673 -42.94 -0.672 h -0.672 -4.025 -0.672 v 0.672 42.94 V 0 Z m 7.044,0 h 4.027 0.67 v -0.673 -42.94 -0.672 h -0.67 -4.027 -0.67 v 0.672 42.94 V 0 Z m 7.046,0 h 4.025 0.672 v -0.673 -42.94 -0.672 h -0.672 -4.025 -0.671 v 0.672 42.94 V 0 Z m 7.046,0 h 4.024 0.673 v -0.673 -42.94 -0.672 h -0.673 -4.024 -0.673 v 0.672 42.94 V 0 Z m 7.044,0 h 4.025 0.672 v -0.673 -42.94 -0.672 h -0.672 -4.025 -0.671 v 0.672 42.94 V 0 Z m 7.046,0 h 4.025 0.67 v -0.673 -42.94 -0.672 h -0.67 -4.025 -0.672 v 0.672 42.94 V 0 Z m 7.044,0 h 4.026 0.671 v -0.673 -42.94 -0.672 h -0.671 -4.026 -0.671 v 0.672 42.94 V 0 Z m 7.045,0 h 4.026 0.672 v -0.673 -42.94 -0.672 h -0.672 -4.026 -0.669 v 0.672 42.94 V 0 Z m 7.046,0 h 4.026 0.67 v -0.673 -42.94 -0.672 h -0.67 -4.026 -0.672 v 0.672 42.94 V 0 Z m 7.045,0 h 4.025 0.672 v -0.673 -42.94 -0.672 h -0.672 -4.025 -0.673 v 0.672 42.94 V 0 Z m 7.045,0 h 4.026 0.67 v -0.673 -42.94 -0.672 h -0.67 -4.026 -0.672 v 0.672 42.94 V 0 Z m 7.044,0 h 4.027 0.67 v -0.673 -42.94 -0.672 h -0.67 -4.027 -0.67 v 0.672 42.94 V 0 Z m 7.047,0 h 4.024 0.671 v -0.673 -42.94 -0.672 h -0.671 -4.024 -0.673 v 0.672 42.94 V 0 Z m 7.044,0 h 4.026 0.671 v -0.673 -42.94 -0.672 h -0.671 -4.026 -0.671 v 0.672 42.94 V 0 Z m 7.046,0 h 4.026 0.669 v -0.673 -42.94 -0.672 h -0.669 -4.026 -0.671 v 0.672 42.94 V 0 Z m 7.044,0 h 4.026 0.671 v -0.673 -42.94 -0.672 h -0.671 -4.026 -0.671 v 0.672 42.94 V 0 Z m 7.046,0 h 4.026 0.671 v -0.673 -42.94 -0.672 h -0.671 -4.026 -0.671 v 0.672 42.94 V 0 Z m 7.044,0 h 4.026 0.671 v -0.673 -42.94 -0.672 h -0.671 -4.026 -0.671 v 0.672 42.94 V 0 Z m 7.046,0 h 4.026 0.671 v -0.673 -42.94 -0.672 h -0.671 -4.026 -0.671 v 0.672 42.94 V 0 Z m 7.045,0 h 4.026 0.672 v -0.673 -42.94 -0.672 h -0.672 -4.026 -0.67 v 0.672 42.94 V 0 Z m 7.044,0 h 4.027 0.671 v -0.673 -42.94 -0.672 h -0.671 -4.027 -0.671 v 0.672 42.94 V 0 Z m 7.046,0 h 4.026 0.672 v -0.673 -42.94 -0.672 h -0.672 -4.026 -0.671 v 0.672 42.94 V 0 Z m 7.046,0 h 4.025 0.671 v -0.673 -42.94 -0.672 h -0.671 -4.025 -0.673 v 0.672 42.94 V 0 Z m 7.044,0 h 4.026 0.671 v -0.673 -42.94 -0.672 h -0.671 -4.026 -0.671 v 0.672 42.94 V 0 Z m 7.046,0 h 4.025 0.672 v -0.673 -42.94 -0.672 h -0.672 -4.025 -0.672 v 0.672 42.94 V 0 Z m 7.044,0 h 4.026 0.671 v -0.673 -42.94 -0.672 h -0.671 -4.026 -0.67 v 0.672 42.94 V 0 Z m 7.046,0 h 4.025 0.672 v -0.673 -42.94 -0.672 h -0.672 -4.025 -0.672 v 0.672 42.94 V 0 Z m 7.045,0 h 4.025 0.671 v -0.673 -42.94 -0.672 h -0.671 -4.025 -0.671 v 0.672 42.94 V 0 Z m 7.045,0 h 4.025 0.672 v -0.673 -42.94 -0.672 h -0.672 -4.025 -0.672 v 0.672 42.94 V 0 Z m 7.046,0 h 4.025 0.671 v -0.673 -42.94 -0.672 h -0.671 -4.025 -0.672 v 0.672 42.94 V 0 Z m 7.044,0 h 4.025 0.672 v -0.673 -42.94 -0.672 h -0.672 -4.025 -0.67 v 0.672 42.94 V 0 Z m 7.045,0 h 4.026 0.671 v -0.673 -42.94 -0.672 h -0.671 -4.026 -0.671 v 0.672 42.94 V 0 Z m 6.374,0 h 5.368 v -44.285 h -5.368 z M -14.762,0 h 5.369 v -44.285 h -5.369 z m 7.717,0 h 4.025 0.672 v -0.673 -42.94 -0.672 H -3.02 -7.045 -7.717 v 0.672 42.94 V 0 Z"
             style="fill:#ede8e5;fill-opacity:1;fill-rule:evenodd;stroke:none"
             id="path39560" />
        </g>
        <path
           d="m 135.722,192.758 h 4.025 v -42.94 h -4.025 z m 7.045,0 h 4.026 v -42.94 h -4.026 z m 7.045,0 h 4.026 v -42.94 h -4.026 z m 7.045,0 h 4.025 v -42.94 h -4.025 z m 7.045,0 h 4.025 v -42.94 h -4.025 z m 7.046,0 h 4.025 v -42.94 h -4.025 z m 7.045,0 h 4.026 v -42.94 h -4.026 z m 7.045,0 h 4.026 v -42.94 h -4.026 z m 7.045,0 h 4.025 v -42.94 h -4.025 z m 7.045,0 h 4.025 v -42.94 h -4.025 z m 7.045,0 h 4.025 v -42.94 h -4.025 z m 7.045,0 h 4.026 v -42.94 h -4.026 z m 7.045,0 h 4.026 v -42.94 h -4.026 z m 7.045,0 h 4.027 v -42.94 h -4.027 z m 7.046,0 h 4.025 v -42.94 h -4.025 z m 7.044,0 h 4.026 v -42.94 h -4.026 z m 7.045,0 h 4.026 v -42.94 h -4.026 z m 7.046,0 h 4.024 v -42.94 h -4.024 z m 7.044,0 h 4.027 v -42.94 h -4.027 z m 7.046,0 h 4.025 v -42.94 h -4.025 z m 7.046,0 h 4.024 v -42.94 h -4.024 z m 7.044,0 h 4.025 v -42.94 h -4.025 z m 7.046,0 h 4.025 v -42.94 h -4.025 z m 7.044,0 h 4.026 v -42.94 h -4.026 z m 7.046,0 h 4.025 v -42.94 h -4.025 z m 7.046,0 h 4.025 v -42.94 h -4.025 z m 7.044,0 h 4.024 v -42.94 h -4.024 z m 7.045,0 h 4.025 v -42.94 h -4.025 z m 7.044,0 h 4.027 v -42.94 h -4.027 z m 7.047,0 h 4.024 v -42.94 h -4.024 z m 7.044,0 h 4.026 v -42.94 h -4.026 z m 7.046,0 h 4.026 v -42.94 h -4.026 z m 7.044,0 h 4.026 v -42.94 h -4.026 z m 7.046,0 h 4.026 v -42.94 h -4.026 z m 7.044,0 h 4.026 v -42.94 h -4.026 z m 7.046,0 h 4.026 v -42.94 h -4.026 z m 7.046,0 h 4.025 v -42.94 h -4.025 z m 7.044,0 h 4.026 v -42.94 h -4.026 z m 7.045,0 h 4.025 v -42.94 h -4.025 z m 7.046,0 h 4.024 v -42.94 h -4.024 z m 7.044,0 h 4.025 v -42.94 h -4.025 z m 7.046,0 h 4.025 v -42.94 h -4.025 z m 7.044,0 h 4.026 v -42.94 h -4.026 z m 7.046,0 h 4.025 v -42.94 h -4.025 z m 7.045,0 h 4.025 v -42.94 h -4.025 z m 7.045,0 h 4.025 v -42.94 h -4.025 z m 7.046,0 h 4.025 v -42.94 h -4.025 z m 7.044,0 h 4.025 v -42.94 h -4.025 z m 7.046,0 h 4.025 v -42.94 h -4.025 z m 7.045,0 h 4.026 v -42.94 h -4.026 z m -359.301,0 h 4.026 v -42.94 h -4.026 z m 7.045,0 h 4.026 v -42.94 h -4.026 z"
           style="fill:#857a77;fill-opacity:1;fill-rule:evenodd;stroke:none"
           id="path39562" />
        <g
           id="g39564"
           transform="translate(164.5493,346.165)">
          <path
             d="m 0,0 h 277.174 l 68.741,-83.978 H -68.741 Z"
             style="fill:#474f58;fill-opacity:1;fill-rule:evenodd;stroke:none"
             id="path39566" />
        </g>
        <g
           id="g39568"
           transform="translate(510.4639,262.1875)">
          <path
             d="M 0,0 C 0,77.141 -10.611,216.157 -68.74,216.157 V 83.978 Z m -414.655,0 c 0,77.141 10.611,216.157 68.74,216.157 V 83.978 Z"
             style="fill:#d0edfb;fill-opacity:1;fill-rule:evenodd;stroke:none"
             id="path39570" />
        </g>
        <path
           d="m 164.549,346.165 h 277.174 v 132.18 H 164.549 Z"
           style="fill:#b7e2f8;fill-opacity:1;fill-rule:evenodd;stroke:none"
           id="path39572" />
        <path
           d="M 441.724,346.165 H 164.55 v 30.484 h 277.174 z"
           style="fill:#8c7771;fill-opacity:1;fill-rule:evenodd;stroke:none"
           id="path39574" />
        <g
           id="g39576"
           transform="translate(441.7236,376.6494)">
          <path
             d="m 0,0 h 10.27 l 56.523,-56.522 c 1.431,-20.887 1.947,-40.92 1.947,-57.94 L 0,-30.484 Z m -287.444,0 h 10.27 v -30.484 l -68.741,-83.978 c 0,17.02 0.518,37.053 1.947,57.94 z"
             style="fill:#9d8b85;fill-opacity:1;fill-rule:evenodd;stroke:none"
             id="path39578" />
        </g>
        <g
           id="g39580"
           transform="translate(183.2573,339.457)">
          <path
             d="M 0,0 H 42.941 L 19.46,-71.459 h -63.071 z"
             style="fill:#68707c;fill-opacity:1;fill-rule:evenodd;stroke:none"
             id="path39582" />
        </g>
        <g
           id="g39584"
           transform="translate(186.2793,337.6104)">
          <path
             d="M 0,0 -35.581,-60.05 H 14.364 L 35.164,0 Z"
             style="fill:#f14960;fill-opacity:1;fill-rule:evenodd;stroke:none"
             id="path39586" />
        </g>
        <g
           id="g39588"
           transform="translate(186.2793,337.6104)">
          <path
             d="m 0,0 -35.581,-60.05 h 5.07 C -10.016,-46.317 9.46,-24.605 21.678,0 Z"
             style="fill:#f36077;fill-opacity:1;fill-rule:evenodd;stroke:none"
             id="path39590" />
        </g>
        <g
           id="g39592"
           transform="translate(247.7031,339.457)">
          <path
             d="M 0,0 H 42.941 C 42.637,-23.82 42.334,-47.64 42.029,-71.459 H -21.042 C -14.027,-47.64 -7.014,-23.82 0,0"
             style="fill:#68707c;fill-opacity:1;fill-rule:evenodd;stroke:none"
             id="path39594" />
        </g>
        <g
           id="g39596"
           transform="translate(251.3076,337.6104)">
          <path
             d="M 0,0 C -5.538,-20.018 -11.076,-40.034 -16.614,-60.05 H 33.33 c 0.613,20.016 1.223,40.032 1.834,60.05 z"
             style="fill:#fab40a;fill-opacity:1;fill-rule:evenodd;stroke:none"
             id="path39598" />
        </g>
        <g
           id="g39600"
           transform="translate(251.3066,337.6104)">
          <path
             d="m 0,0 c -5.537,-20.018 -11.075,-40.034 -16.613,-60.05 h 5.069 C 4.614,-46.317 17.232,-24.605 21.68,0 Z"
             style="fill:#fbca07;fill-opacity:1;fill-rule:evenodd;stroke:none"
             id="path39602" />
        </g>
        <g
           id="g39604"
           transform="translate(312.1475,339.457)">
          <path
             d="M 0,0 H 42.942 C 50.161,-23.82 57.381,-47.64 64.6,-71.459 H 1.528 C 1.02,-47.64 0.51,-23.82 0,0"
             style="fill:#68707c;fill-opacity:1;fill-rule:evenodd;stroke:none"
             id="path39606" />
        </g>
        <g
           id="g39608"
           transform="translate(316.3369,337.6104)">
          <path
             d="M 0,0 C 0.783,-20.018 1.566,-40.034 2.352,-60.05 H 52.296 C 46.585,-40.034 40.874,-20.018 35.164,0 Z"
             style="fill:#77a8df;fill-opacity:1;fill-rule:evenodd;stroke:none"
             id="path39610" />
        </g>
        <g
           id="g39612"
           transform="translate(316.3369,337.6104)">
          <path
             d="M 0,0 C 0.783,-20.018 1.566,-40.034 2.352,-60.05 H 7.421 C 19.242,-46.317 25.003,-24.605 21.678,0 Z"
             style="fill:#8ebae7;fill-opacity:1;fill-rule:evenodd;stroke:none"
             id="path39614" />
        </g>
        <g
           id="g39616"
           transform="translate(376.5947,339.457)">
          <path
             d="M 0,0 H 42.94 L 87.167,-71.459 H 24.096 Z"
             style="fill:#68707c;fill-opacity:1;fill-rule:evenodd;stroke:none"
             id="path39618" />
        </g>
        <g
           id="g39620"
           transform="translate(381.3652,337.6104)">
          <path
             d="M 0,0 21.317,-60.05 H 71.263 L 35.164,0 Z"
             style="fill:#a1d74e;fill-opacity:1;fill-rule:evenodd;stroke:none"
             id="path39622" />
        </g>
        <g
           id="g39624"
           transform="translate(381.3652,337.6104)">
          <path
             d="m 0,0 21.317,-60.05 h 5.07 c 7.482,13.733 6.386,35.445 -4.709,60.05 z"
             style="fill:#c0e365;fill-opacity:1;fill-rule:evenodd;stroke:none"
             id="path39626" />
        </g>
      </g>
    </g>
  </g>
</svg>
